<?xml version="1.0" standalone="no"?>
<!DOCTYPE svg PUBLIC "-//W3C//DTD SVG 20010904//EN"
 "http://www.w3.org/TR/2001/REC-SVG-20010904/DTD/svg10.dtd">
<svg version="1.0" xmlns="http://www.w3.org/2000/svg"
 width="704.000000pt" height="235.000000pt" viewBox="0 0 704.000000 235.000000"
 preserveAspectRatio="xMidYMid meet">

<g transform="translate(0.000000,235.000000) scale(0.100000,-0.100000)"
fill="#000000" stroke="none">
<path d="M0 1175 l0 -1175 3520 0 3520 0 0 1175 0 1175 -3520 0 -3520 0 0
-1175z m1700 855 c-25 -22 -131 -113 -237 -202 -105 -90 -192 -166 -192 -170
-1 -5 107 -8 239 -8 l240 0 0 -95 0 -95 -227 -1 c-126 -1 -234 -1 -240 0 -7 1
-13 0 -13 -3 0 -4 136 -124 382 -339 43 -37 78 -70 78 -73 0 -2 -75 -4 -167
-4 l-168 0 -30 28 c-17 15 -62 54 -100 87 -39 32 -77 66 -86 75 -8 8 -44 40
-79 70 -35 30 -85 73 -110 95 -25 22 -74 64 -108 94 -34 29 -62 59 -62 65 0 6
37 43 82 81 44 39 95 83 112 98 32 30 103 94 251 223 49 44 98 87 109 97 17
15 42 17 195 17 l176 -1 -45 -39z m2305 -173 l0 -207 258 0 257 0 0 210 0 210
1143 -3 1142 -2 3 -97 3 -98 -186 0 -185 0 0 -415 0 -415 -110 0 -110 0 -1
388 c-1 213 -2 398 -2 412 l-2 25 -497 0 -498 0 0 -107 0 -108 310 0 310 0 0
-100 0 -100 -310 0 -310 0 0 -205 0 -205 -350 0 -350 0 -2 208 -3 207 -252 3
-253 2 -2 -207 -3 -208 -750 -2 -750 -3 45 41 c25 22 75 65 111 94 l66 55 358
2 358 3 -204 170 c-111 94 -237 198 -278 233 -42 35 -85 71 -96 80 -11 10 -78
66 -150 126 -71 60 -132 112 -135 115 -3 4 -25 22 -50 41 -60 46 -70 56 -63
64 4 3 351 5 772 4 l766 -3 0 -208z m-3425 -1192 l0 -175 -205 0 -205 0 0 175
0 175 205 0 205 0 0 -175z m1205 158 c-4 -10 -31 -81 -60 -158 -29 -77 -56
-148 -60 -157 -7 -17 -34 -18 -385 -18 l-378 0 -40 63 c-22 34 -47 68 -56 76
-20 17 -21 31 -2 31 23 0 66 59 66 89 0 16 -9 40 -20 54 -11 14 -20 28 -20 31
0 3 216 6 481 6 454 0 481 -1 474 -17z m1065 7 c0 -5 -9 -14 -19 -20 -32 -16
-52 -69 -52 -138 -1 -75 22 -126 71 -160 l33 -22 -443 2 -444 3 -68 165 c-37
91 -68 168 -68 173 0 4 223 7 495 7 311 0 495 -4 495 -10z m1088 -167 l2 -173
-469 0 -470 0 39 38 c49 48 59 78 28 88 -16 5 -25 2 -33 -11 -30 -52 -53 -70
-92 -70 -22 0 -51 8 -66 18 -50 33 -62 159 -20 215 40 53 126 50 160 -5 13
-20 25 -27 41 -25 26 4 30 33 6 52 -8 8 -20 22 -25 32 -9 18 6 18 443 16 l453
-3 3 -172z m920 0 l2 -173 -435 0 -435 0 0 168 c0 93 3 172 7 175 3 4 198 6
432 5 l426 -3 3 -172z m228 164 c2 -7 3 -65 2 -127 l-3 -115 -76 115 c-41 63
-79 121 -83 128 -5 9 12 12 74 12 57 0 82 -4 86 -13z m969 -9 c-98 -77 -80
-266 30 -314 25 -11 -44 -13 -457 -14 l-488 0 0 175 0 175 471 0 472 0 -28
-22z m755 -153 l0 -175 -287 0 -288 0 43 26 42 25 0 70 0 69 -80 0 c-78 0 -80
-1 -80 -24 0 -23 4 -25 53 -28 48 -3 52 -5 55 -30 3 -22 -3 -30 -28 -43 -43
-22 -102 -21 -142 2 -57 33 -69 139 -24 208 38 58 157 54 180 -6 8 -23 15 -28
31 -23 11 4 22 8 24 10 8 7 -28 74 -39 74 -5 0 -10 5 -10 10 0 6 98 10 275 10
l275 0 0 -175z m-6019 125 c23 -13 26 -62 4 -80 -8 -7 -47 -15 -85 -18 l-70
-5 0 57 0 56 66 0 c36 0 74 -5 85 -10z m1058 -70 c30 -78 29 -80 -29 -80 -27
0 -50 2 -50 5 0 10 53 136 55 133 2 -2 13 -28 24 -58z m3146 -90 c43 -63 80
-121 82 -127 4 -10 -16 -13 -81 -13 l-86 0 0 132 c0 72 2 129 4 127 2 -2 39
-56 81 -119z m-4255 0 c21 -21 90 -124 90 -135 0 -3 -43 -5 -95 -5 l-95 0 0
80 0 80 40 0 c27 0 47 -7 60 -20z m1170 -76 c11 -25 20 -50 20 -55 0 -5 -47
-9 -105 -9 -58 0 -105 4 -105 9 0 5 9 30 20 55 l19 46 66 0 66 0 19 -46z
m2169 -188 c37 -20 51 -55 51 -134 0 -95 -25 -132 -92 -132 l-38 0 0 140 0
140 25 0 c15 0 38 -6 54 -14z m965 -9 c26 -25 36 -57 36 -112 0 -98 -32 -145
-99 -145 l-31 0 0 135 0 135 41 0 c22 0 46 -6 53 -13z m-794 -71 c0 -8 -6 -16
-14 -19 -18 -7 -36 -68 -36 -124 0 -32 -4 -43 -15 -43 -12 0 -15 17 -15 96 0
86 2 95 18 92 9 -2 16 -11 15 -19 -2 -8 4 -4 13 9 19 25 34 29 34 8z m94 1 c9
-7 20 -32 23 -55 l6 -42 -37 0 c-37 0 -41 -6 -29 -48 5 -20 11 -23 34 -20 16
3 29 3 29 2 0 -19 -17 -34 -41 -34 -21 0 -32 7 -44 30 -27 52 -16 149 19 172
15 10 20 10 40 -5z m140 -3 c12 -11 16 -35 16 -84 0 -38 5 -72 10 -75 18 -11
11 -35 -10 -35 -11 0 -20 5 -20 10 0 6 -7 6 -19 -1 -25 -17 -49 -5 -57 27 -6
23 -1 33 29 61 51 46 48 100 -3 73 -16 -8 -20 -8 -20 4 0 15 26 35 47 36 6 0
19 -7 27 -16z m156 1 c15 -14 18 -14 30 0 15 18 34 19 48 3 5 -7 12 -51 13
-98 4 -74 2 -85 -13 -88 -15 -3 -18 8 -20 80 -2 66 -6 83 -18 83 -12 0 -16
-17 -18 -82 -2 -65 -6 -83 -17 -83 -11 0 -15 12 -16 43 -3 122 -8 139 -34 117
-11 -9 -15 -32 -15 -86 0 -59 -3 -74 -15 -74 -12 0 -15 17 -15 96 0 91 1 96
20 91 11 -3 23 -1 26 4 8 13 25 11 44 -6z m556 -3 c7 -4 13 -38 15 -77 1 -38
6 -78 11 -87 10 -20 -9 -35 -24 -20 -8 8 -17 8 -30 1 -26 -14 -48 5 -48 42 0
20 10 35 35 55 52 40 40 94 -14 64 -17 -8 -21 -8 -21 4 0 22 51 35 76 18z
m144 2 c0 -4 -8 -12 -17 -19 -12 -9 -18 -33 -22 -85 -4 -43 -11 -75 -18 -77
-15 -5 -19 25 -15 110 3 51 7 67 18 67 9 0 12 -4 9 -10 -3 -5 -2 -10 3 -10 6
0 12 7 16 15 5 15 26 21 26 9z m109 -25 c20 -56 15 -69 -24 -69 -36 0 -40 -6
-28 -48 5 -20 11 -23 34 -20 31 5 36 -1 17 -20 -20 -20 -46 -14 -65 14 -19 30
-21 137 -2 160 21 26 56 17 68 -17z m-644 -145 c0 -10 -8 -20 -17 -22 -18 -3
-26 27 -11 42 12 11 28 0 28 -20z m735 -4 c0 -11 -4 -20 -9 -20 -13 0 -32 26
-24 33 13 14 33 6 33 -13z"/>
<path d="M3042 1861 c2 -4 37 -36 78 -70 41 -34 86 -72 100 -84 14 -12 106
-89 205 -171 99 -83 182 -153 185 -156 6 -6 117 -99 143 -119 16 -13 17 3 17
298 l0 311 -366 0 c-201 0 -364 -4 -362 -9z"/>
<path d="M4035 340 c-3 -5 -5 -53 -4 -105 1 -74 5 -98 16 -102 36 -14 64 71
49 151 -9 50 -45 82 -61 56z"/>
<path d="M4980 241 c0 -110 0 -111 23 -111 32 0 47 36 47 108 0 67 -17 106
-48 110 -22 3 -22 1 -22 -107z"/>
<path d="M4306 254 c-11 -29 -6 -44 14 -44 11 0 20 6 20 14 0 21 -11 46 -20
46 -4 0 -11 -7 -14 -16z"/>
<path d="M4441 166 c-15 -26 -8 -46 15 -46 9 0 14 11 14 35 0 41 -11 45 -29
11z"/>
<path d="M5154 164 c-12 -18 -14 -28 -6 -36 18 -18 42 -1 42 32 0 37 -14 39
-36 4z"/>
<path d="M5396 255 c-12 -33 -7 -55 15 -55 17 0 20 5 17 32 -3 35 -22 48 -32
23z"/>
</g>
</svg>
